<svg width="2109" height="530" viewBox="0 0 2109 530" fill="none" xmlns="http://www.w3.org/2000/svg">
<path d="M17.7021 122.157L41.315 77.149L147.578 19.2847L318.779 0L442.754 38.5797L484.079 124.31L507.691 173.604C560.818 177.889 613.954 177.889 613.954 177.889C655.279 180.032 667.081 188.603 667.081 188.603C684.793 225.04 726.118 244.324 726.118 244.324L814.669 227.182C867.795 235.753 891.408 246.467 891.408 246.467C903.219 261.466 909.12 274.333 909.12 274.333C926.832 282.904 968.157 300.056 968.157 300.056L454.565 321.484L0 270.048L17.7121 122.167L17.7021 122.157Z" fill="#FCBE63"/>
<path d="M1158.46 330.188L1182.08 285.18L1288.34 227.316L1459.54 208.031L1583.52 246.611L1624.84 332.341L1648.45 381.635C1701.58 385.92 1754.72 385.92 1754.72 385.92C1796.04 388.063 1807.84 396.634 1807.84 396.634C1825.55 433.071 1866.88 452.355 1866.88 452.355L1955.43 435.213C2008.56 443.784 2032.17 454.498 2032.17 454.498C2043.98 469.497 2049.88 482.364 2049.88 482.364C2067.59 490.935 2108.92 508.087 2108.92 508.087L1595.33 529.515L1140.76 478.079L1158.47 330.198L1158.46 330.188Z" fill="#FCBE63"/>
</svg>
