<svg width="500" height="622" viewBox="0 0 500 622" fill="none" xmlns="http://www.w3.org/2000/svg">
    <path
        d="M167.774 274.99L168.71 276.434L170.451 276.774L171.387 281.455L174.205 282.973L174.337 287.516L179.301 296.878L177.287 296.675L172.191 292.821L172.597 291.166L173.666 289.925L173.26 287.305L173.128 289.511L171.918 290.542L171.653 287.719L170.849 286.753L171.387 292.197L169.647 291.304L168.437 285.934L167.368 285.52L168.437 289.098L166.159 287.856L165.355 285.309L165.222 287.856L168.305 289.925L169.241 291.994L177.022 297.503L180.511 298.395L186.949 312.576L186.278 318.977L183.461 314.361L184.265 317.939L186.005 320.145L185.599 323.52L186.668 327.171L182.782 341.563L188.284 342.115L190.165 329.929L189.228 321.597L190.165 312.235L184.663 302.459L186.005 301.908L186.544 294.33L185.74 297.632L185.068 297.43L184.132 294.128L183.461 294.266L184.397 298.054L185.74 298.33L185.201 301.567L184.132 301.908L176.624 287.378V286.274L178.232 286.072L181.182 279.184L180.113 278.632L178.638 282.072L178.77 273.667L177.163 273.602L178.099 283.516L177.693 285.447L175.953 285.585L175.282 273.878L173.807 273.943L174.072 281.861L172.464 280.896L171.793 276.628L169.382 275.525L169.514 274.633L167.774 274.973V274.99Z"
        fill="#121B1C" />
    <path
        d="M196.229 257.352L186.544 255.729L182.587 257.66V261.619L180.215 264.662L168.945 263.145L162.023 268.726L159.853 269.943L165.191 271.971L173.292 272.58L163.607 272.783L160.836 274.308L154.71 276.336L166.573 276.944L183.969 273.902L191.882 275.225L196.276 270.836L203.94 273.496L207.694 272.783L208.685 268.929L214.413 268.523L207.304 262.536L196.229 257.352Z"
        fill="#101819" />
    <path
        d="M193.457 278.064L180.806 275.225L167.562 277.862L178.629 279.281L179.815 281.926L185.95 281.723L190.297 283.037L195.042 281.309L193.457 278.064Z"
        fill="#101819" />
    <path
        d="M159.455 281.309L160.836 285.576L160.641 288.116L165.784 288.83L172.308 288.724L174.876 289.941L171.91 282.631L166.174 282.226L160.438 280.295L158.658 281.212"
        fill="#101819" />
    <path
        d="M162.007 266.106C162.545 265.741 163.076 265.376 163.614 265.002C163.872 264.832 164.067 264.589 164.153 264.272C164.2 264.11 164.207 263.948 164.176 263.786C164.176 263.623 164.122 263.469 164.036 263.331C163.872 263.072 163.638 262.844 163.333 262.771C163.037 262.698 162.693 262.715 162.428 262.893C161.89 263.258 161.359 263.623 160.82 263.996C160.563 264.167 160.368 264.41 160.282 264.727C160.235 264.889 160.227 265.051 160.258 265.213C160.258 265.376 160.313 265.53 160.399 265.668C160.563 265.927 160.797 266.154 161.101 266.227C161.398 266.301 161.741 266.284 162.007 266.106Z"
        fill="#101819" />
    <path d="M312.686 181.888V259.56H266.913L266.577 181.661C266.577 181.661 313.849 181.288 312.686 181.88V181.888Z"
        fill="#30494A" />
    <path
        d="M245.224 119.947V133.024H248.385V208.863H266.538V133.251H269.301L269.207 120.036C269.207 120.036 245.81 120.287 245.224 119.947Z"
        fill="#406163" />
    <path
        d="M205.478 195.663V258.594H266.758V194.308H258.852V201.748H250.946V192.613H241.721V201.075H232.497V191.94H222.616V200.401H215.366V191.607C215.366 191.607 204.822 195.331 205.486 195.663H205.478Z"
        fill="#3C5B5D" />
    <path
        d="M147.303 479.026L154.967 370.104L180.526 358.948V341.887L192.022 338.602L188.19 326.798L231.637 306.451L234.197 330.732L268.7 332.695L277.644 340.573L310.867 345.822L337.706 349.757L342.818 367.475L365.818 374.038L369.65 362.226L427.152 387.157L429.712 450.152L448.349 455.004L433.544 528.887L432.295 582.107L99.3765 581.247L110.24 491.487L147.303 479.026Z"
        fill="#283C3E" />
    <path
        d="M173.76 208.011L173.604 216.351L175.906 216.375L176.983 266.066L189.204 270.682V216.611H193.871V207.938L173.76 208.011Z"
        fill="#3C5B5D" />
    <path
        d="M185.326 146.012C185.326 146.012 188.198 191.411 167.711 206.355H201.856C201.856 206.355 185.326 201.187 185.326 146.012Z"
        fill="#3C5B5D" />
    <path
        d="M330.261 176.079C330.261 176.079 332.33 208.765 317.579 219.531H342.163C342.163 219.531 330.261 215.807 330.261 176.079Z"
        fill="#344F51" />
    <path
        d="M257.618 0.266846C257.618 0.266846 263.058 86.1974 224.286 114.495H288.914C288.914 114.495 257.618 104.711 257.618 0.266846Z"
        fill="#406163" />
    <path
        d="M187.605 246.741H195.105V255.252H199.054V246.336H208.528V254.643H214.452V245.93H220.765V254.846H226.291V245.727H231.418V254.237H238.52V245.524H246.809V254.035H251.148V245.322H259.038V326.384H189.579C189.579 326.384 188.198 246.441 187.605 246.741Z"
        fill="#385557" />
    <path
        d="M330.644 252.655L335.381 244.551L339.33 244.348V221.446H321.567V251.438H316.83V245.97H310.118V251.844H300.644V245.362H293.932V252.047H289.593V245.97H280.906V252.453H273.804V245.565H266.304V332.907H332.212C332.212 332.907 331.229 252.964 330.636 252.655H330.644Z"
        fill="#344F51" />
    <path
        d="M406.643 286.193L405.503 316.267L402.459 311.188L404.106 286.404L402.53 286.671L402.007 291.969L400.259 291.247L400.782 286.574C398.51 286.485 399.384 286.128 399.384 286.128L398.862 291.693L401.663 292.951L400.961 303.278L400.087 311.18L402.015 316.924L405.16 317.824L399.736 379.254L405.331 379.165L406.908 351.233L413.901 349.075L417.576 340.54L412.504 348.174L407.431 349.164L409.702 308.479L414.595 305.874L418.092 302.102L417.217 301.834L415.82 303.359L416.343 298.508L422.119 296.35L424.741 292.845L422.993 292.934L420.893 295.806L416.695 297.332L417.569 293.381L420.191 292.391L420.019 288.351L418.973 288.172L419.145 291.766L417.748 292.212L417.397 288.083C416.523 288.083 416.351 287.726 416.351 287.726L414.424 304.073L413.378 305.242L409.881 306.767V300.122L409.179 289.973L413.549 288.091L413.721 284.586L411.793 284.676L412.316 287.548L409.171 288.805L409.343 285.211L406.635 286.168L406.643 286.193Z"
        fill="#141E1F" />
    <path
        d="M369.478 291.612L370.703 293.494L372.974 293.94L374.199 300.049L377.875 302.029L378.047 307.959L384.517 320.169L381.895 319.901L375.245 314.871L375.768 312.713L377.165 311.099L376.642 307.683L376.471 310.555L374.894 311.902L374.543 308.219L373.497 306.961L374.199 314.06L371.928 312.892L370.352 305.891L368.955 305.355L370.352 310.028L367.378 308.414L366.333 305.087L366.161 308.414L370.18 311.107L371.405 313.801L381.551 320.988L386.101 322.157L394.499 340.654L393.625 349.002L389.949 342.982L390.994 347.655L393.266 350.527L392.743 354.924L394.14 359.686L389.067 378.459L396.239 379.181L398.69 363.288L397.464 352.425L398.69 340.216L391.517 327.462L393.266 326.74L393.968 316.859L392.922 321.167L392.048 320.899L390.823 316.591L389.949 316.77L391.174 321.71L392.922 322.067L392.22 326.286L390.823 326.732L381.028 307.781V306.345L383.128 306.077L386.975 297.096L385.578 296.374L383.658 300.861L383.83 289.9L381.731 289.811L382.956 302.743L382.433 305.258L380.162 305.436L379.288 290.168L377.36 290.257L377.711 300.585L375.612 299.327L374.738 293.762L371.593 292.326L371.764 291.158L369.493 291.604L369.478 291.612Z"
        fill="#141E1F" />
    <path
        d="M406.588 268.613L393.952 266.487L388.794 269.01V274.17L385.695 278.145L371 276.158L361.978 283.435L359.137 285.025L366.106 287.678L376.674 288.473L364.038 288.733L360.433 290.72L352.433 293.365L367.909 294.16L390.596 290.193L400.914 291.913L406.642 286.193L416.64 289.657L421.541 288.733L422.829 283.703L430.305 283.175L421.026 275.363L406.588 268.613Z"
        fill="#162122" />
    <path
        d="M431.336 285.025L425.404 284.895L422.314 289.398L421.541 294.428C425.927 294.16 426.957 293.763 426.957 293.763L433.919 288.603L431.343 285.025H431.336Z"
        fill="#162122" />
    <path
        d="M402.975 295.62L386.476 291.912L369.197 295.352L383.635 297.21L385.181 300.65L393.18 300.382L398.846 302.102L405.035 299.855L402.975 295.62Z"
        fill="#162122" />
    <path
        d="M358.622 299.855L360.425 305.412L360.168 308.722L366.871 309.647L375.378 309.517L378.726 311.108L374.855 301.575L367.379 301.048L359.902 298.533L357.584 299.725"
        fill="#162122" />
    <path
        d="M433.372 284.351C433.786 285.398 434.277 286.396 434.886 287.329C435.058 287.596 435.284 287.799 435.588 287.888C435.869 287.97 436.244 287.929 436.494 287.767C436.743 287.596 436.962 287.353 437.032 287.037C437.102 286.728 437.087 286.371 436.915 286.096C436.4 285.301 435.947 284.465 435.588 283.589C435.627 283.686 435.666 283.783 435.705 283.881C435.682 283.824 435.659 283.759 435.635 283.702C435.596 283.54 435.526 283.402 435.424 283.289C435.339 283.159 435.229 283.053 435.097 282.972C434.847 282.818 434.472 282.753 434.191 282.85C433.91 282.948 433.637 283.126 433.489 283.41C433.348 283.678 433.255 284.051 433.372 284.351Z"
        fill="#162122" />
    <path
        d="M361.775 279.703C362.47 279.224 363.172 278.746 363.867 278.267C364.124 278.097 364.319 277.853 364.405 277.537C364.483 277.245 364.444 276.855 364.288 276.596C364.124 276.336 363.89 276.109 363.586 276.036C363.289 275.963 362.946 275.979 362.68 276.158C361.986 276.636 361.283 277.115 360.589 277.594C360.331 277.764 360.136 278.007 360.05 278.324C359.972 278.616 360.011 279.005 360.167 279.265C360.331 279.524 360.565 279.752 360.87 279.825C361.166 279.898 361.51 279.881 361.775 279.703Z"
        fill="#162122" />
    <path
        d="M385.047 273.091V271.12C385.047 270.811 384.915 270.479 384.704 270.26C384.501 270.049 384.165 269.887 383.877 269.903C383.572 269.919 383.26 270.016 383.049 270.26C382.839 270.495 382.706 270.787 382.706 271.12V273.091C382.706 273.399 382.839 273.732 383.049 273.951C383.26 274.17 383.588 274.324 383.877 274.308C384.181 274.292 384.493 274.194 384.704 273.951C384.915 273.716 385.047 273.424 385.047 273.091Z"
        fill="#162122" />
    <path
        d="M412.956 269.124C414.759 270.081 416.601 270.949 418.474 271.753C418.731 271.866 419.145 271.769 419.379 271.631C419.621 271.485 419.855 271.193 419.918 270.901C420.074 270.195 419.707 269.668 419.098 269.4C418.973 269.343 418.848 269.294 418.724 269.238C418.958 269.335 418.677 269.213 418.63 269.197C418.411 269.1 418.193 269.002 417.982 268.905C417.537 268.702 417.1 268.499 416.655 268.288C415.813 267.883 414.977 267.461 414.15 267.015C413.604 266.723 412.855 266.852 412.55 267.453C412.269 268.013 412.386 268.808 412.972 269.116L412.956 269.124Z"
        fill="#162122" />
    <path d="M224.286 114.494L245.225 120.084L269.098 120.173L288.914 114.494H224.286Z" fill="#30494A" />
    <path opacity="0.28" d="M256.174 139.977V142.143H266.718V139.514C266.718 139.514 256.478 139.823 256.174 139.977Z"
        fill="#83ACAF" />
    <path d="M266.882 146.614L324.314 181.888L266.351 182.01C266.351 182.01 266.874 147.019 266.874 146.614H266.882Z"
        fill="#30494A" />
    <path d="M256.869 252.842L266.469 252.761L270.831 326.806H246.63C246.63 326.806 255.418 252.095 256.869 252.842Z"
        fill="#385557" />
    <path d="M258.078 283.654V333.913L336.918 355.347L335.435 284.263C335.435 284.263 257.485 283.354 258.078 283.654Z"
        fill="#30494A" />
    <path opacity="0.65"
        d="M255.55 167.276H259.015C259.421 167.276 259.749 167.617 259.749 168.039V177.961H254.824V168.039C254.824 167.617 255.152 167.276 255.558 167.276H255.55Z"
        fill="#E39600" />
    <path
        d="M178.646 209.252H180.8C181.049 209.252 181.252 209.463 181.252 209.722V215.206H178.193V209.722C178.193 209.463 178.396 209.252 178.646 209.252Z"
        fill="#E39600" />
    <path
        d="M182.923 209.211H185.077C185.326 209.211 185.529 209.422 185.529 209.682V215.166H182.47V209.682C182.47 209.422 182.673 209.211 182.923 209.211Z"
        fill="#E39600" />
    <path
        d="M187.192 209.211H189.346C189.595 209.211 189.798 209.422 189.798 209.682V215.166H186.739V209.682C186.739 209.422 186.942 209.211 187.192 209.211Z"
        fill="#E39600" />
    <path d="M167.711 206.356L173.76 208.011L193.872 207.938L201.856 206.356H167.711Z" fill="#283C3E" />
    <path opacity="0.25"
        d="M186.278 219.158C185.958 219.158 185.693 218.971 185.693 218.809C185.693 218.646 185.95 218.509 186.27 218.509C186.59 218.509 186.848 218.638 186.848 218.809C186.848 218.979 186.59 219.158 186.27 219.158H186.278Z"
        fill="#3C5B5D" />
    <path opacity="0.25"
        d="M186.973 217.998C186.809 217.998 186.684 217.9 186.684 217.819C186.684 217.738 186.817 217.665 186.973 217.665C187.129 217.665 187.262 217.73 187.262 217.819C187.262 217.908 187.129 217.998 186.973 217.998Z"
        fill="#3C5B5D" />
    <path opacity="0.28" d="M262.035 145.145H250.945V147.636H262.035V145.145Z" fill="#83ACAF" />
    <path opacity="0.28" d="M254.551 154.75H248.191V157.241H254.551V154.75Z" fill="#83ACAF" />
    <path opacity="0.65"
        d="M250.492 123.2H252.646C252.896 123.2 253.099 123.411 253.099 123.67V131.881H250.04V123.67C250.04 123.411 250.243 123.2 250.492 123.2Z"
        fill="#E39600" />
    <path opacity="0.65"
        d="M256.159 123.224H258.313C258.562 123.224 258.765 123.435 258.765 123.695V131.905H255.706V123.695C255.706 123.435 255.909 123.224 256.159 123.224Z"
        fill="#E39600" />
    <path opacity="0.65"
        d="M262.129 123.305H264.283C264.533 123.305 264.736 123.516 264.736 123.775V131.986H261.677V123.775C261.677 123.516 261.88 123.305 262.129 123.305Z"
        fill="#E39600" />
    <path d="M184.069 224.512H175.773V227.067H184.069V224.512Z" fill="#466A6C" />
    <path d="M214.202 212.505H205.906V215.06H214.202V212.505Z" fill="#30494A" />
    <path d="M245.514 218.322H232.137V220.878H245.514V218.322Z" fill="#30494A" />
    <path d="M213.227 272.856H199.851V275.411H213.227V272.856Z" fill="#3C5B5D" />
    <path d="M225.214 267.388H211.837V269.944H225.214V267.388Z" fill="#3C5B5D" />
    <path d="M202.528 303.247H189.151V305.802H202.528V303.247Z" fill="#3C5B5D" />
    <path d="M228.781 232.917H215.404V235.473H228.781V232.917Z" fill="#30494A" />
    <path d="M271.595 227.116H258.219V229.672H271.595V227.116Z" fill="#30494A" />
    <path d="M252.584 221.389H239.207V223.945H252.584V221.389Z" fill="#446769" />
    <path d="M222.6 276.807H209.223V279.363H222.6V276.807Z" fill="#466A6C" />
    <path d="M189.213 231.846H184.546V234.402H189.213V231.846Z" fill="#406163" />
    <path d="M317.579 219.53L321.567 221.453H339.33L342.163 219.53H317.579Z" fill="#283C3E" />
    <path
        d="M343.194 212.108C343.194 212.108 346.066 257.507 325.579 272.451H359.723C359.723 272.451 343.194 267.283 343.194 212.108Z"
        fill="#30494A" />
    <path
        d="M330.909 275.785V379.539L351.434 385.007L346.697 290.372L354.985 286.112L354.197 276.182H345.121V274.357C345.121 274.357 332.095 275.777 330.909 275.777V275.785Z"
        fill="#30494A" />
    <path d="M325.586 272.459L330.909 275.785L354.189 276.191L359.73 272.459H325.586Z" fill="#283C3E" />
    <path
        d="M170.287 152.835C170.287 152.835 162.233 152.47 164.918 155.407C167.603 158.352 169.577 162.027 158.472 163.496C147.366 164.964 132.686 159.634 126.599 163.406C126.599 163.406 126.778 159.91 140.748 161.2C154.718 162.49 165.277 161.289 162.951 158.255C160.626 155.221 160.267 154.393 160.267 154.393C160.267 154.393 162.834 147.879 170.295 152.827L170.287 152.835Z"
        fill="#453414" />
    <path
        d="M187.169 148.446L185.803 153.817C185.803 153.817 160.259 150.54 160.618 154.864C160.618 154.864 149.614 147.733 187.169 148.446Z"
        fill="#E69D10" />
    <path
        d="M229.897 8.55008C229.897 8.55008 216.318 7.9335 220.844 12.8904C225.371 17.8473 228.688 24.0455 209.981 26.528C191.274 29.0105 166.534 20.0215 156.271 26.3738C156.271 26.3738 156.575 20.484 180.106 22.6582C203.644 24.8243 221.445 22.8123 217.52 17.7013C213.594 12.5902 212.993 11.1948 212.993 11.1948C212.993 11.1948 217.317 0.218257 229.89 8.55819L229.897 8.55008Z"
        fill="#453414" />
    <path
        d="M258.344 1.151L256.041 10.2049C256.041 10.2049 213 4.68006 213.601 11.9653C213.601 11.9653 195.05 -0.0496914 258.336 1.151H258.344Z"
        fill="#E69D10" />
    <path d="M312.693 182.034L266.359 182.002L267.147 184.776H312.545L312.693 182.034Z" fill="#283C3E" />
    <path
        d="M276.965 187.688H283.498C284.262 187.688 284.879 188.329 284.879 189.124V204.051H275.584V189.124C275.584 188.329 276.201 187.688 276.965 187.688Z"
        fill="#E39600" />
    <path
        d="M296.219 187.348H302.751C303.516 187.348 304.132 187.989 304.132 188.784V203.711H294.837V188.784C294.837 187.989 295.454 187.348 296.219 187.348Z"
        fill="#E39600" />
    <path
        d="M192.022 338.603L263.292 355.802L267.147 374.396L331.853 389.032L351.879 406.434L213.755 487.86L289.247 518.323L154.803 603.378L379.069 621.858L466.647 543.133L289.247 474.07L280.243 461.414L427.152 387.158L369.65 362.227L257.415 325.687H188.214L192.022 338.603Z"
        fill="url(#paint0_linear_4180_22994)" />
    <path
        d="M208.154 325.986L216.481 318.498L229.507 316.089L233.151 311.546L247.215 312.081L258.149 319.301L256.588 327.317L208.154 325.986Z"
        fill="#DB9102" />
    <path d="M257.415 325.687L341.429 327.878L322.449 350.52L257.415 325.687Z" fill="#30494A" />
    <path
        d="M323.534 347.534L288.04 338.57L288.188 331.13C288.188 326.117 296.102 322.052 305.857 322.052C315.62 322.052 323.526 326.117 323.526 331.13V347.543L323.534 347.534Z"
        fill="#E39600" />
    <path d="M348.671 355.867L259.038 326.385L321.863 355.25L348.671 355.867Z" fill="#E9A521" />
    <path
        d="M279.197 292.433H285.846C286.619 292.433 287.251 293.09 287.251 293.893V311.481H277.792V293.893C277.792 293.09 278.424 292.433 279.197 292.433Z"
        fill="#E39600" />
    <path
        d="M302.665 292.246H309.314C310.087 292.246 310.719 292.903 310.719 293.706V311.295H301.26V293.706C301.26 292.903 301.892 292.246 302.665 292.246Z"
        fill="#E39600" />
    <path
        d="M325.75 293.211H332.4C333.172 293.211 333.804 293.868 333.804 294.671V312.26H324.345V294.671C324.345 293.868 324.978 293.211 325.75 293.211Z"
        fill="#E39600" />
    <path
        d="M224.286 114.495C224.286 114.495 242.634 100.72 248.565 75.2131C248.565 75.2131 242.275 109.993 224.286 114.495Z"
        fill="#50797C" />
    <path opacity="0.25"
        d="M248.386 133.025L254.395 163.594L252.842 201.497L250.938 201.756V192.621L247.433 192.565L248.386 133.025Z"
        fill="url(#paint1_linear_4180_22994)" />
    <path opacity="0.25" d="M232.489 201.075L267.593 227.376L267.054 218.825L241.713 201.075H232.489Z"
        fill="url(#paint2_linear_4180_22994)" />
    <path opacity="0.25" d="M215.147 200.442L250.251 226.735L249.713 218.185L224.372 200.442H215.147Z"
        fill="url(#paint3_linear_4180_22994)" />
    <path opacity="0.25" d="M194.793 255.341L228.578 281.748L228.04 273.197L199.156 255.341H194.793Z"
        fill="url(#paint4_linear_4180_22994)" />
    <path opacity="0.25" d="M175.907 216.375L180.98 227.287L180.379 263.137L176.445 264.224L175.907 216.375Z"
        fill="url(#paint5_linear_4180_22994)" />
    <path opacity="0.15"
        d="M167.712 206.355C172.043 203.987 176.523 201.699 181.479 199.695L184.21 164.161C184.21 164.161 185.623 192.02 167.704 206.355H167.712Z"
        fill="url(#paint6_linear_4180_22994)" />
    <path opacity="0.15" d="M328.201 199.411L332.306 201.658L331.284 192.166L329.738 191.241L328.201 199.411Z"
        fill="url(#paint7_linear_4180_22994)" />
    <path
        d="M312.967 187.38C312.967 187.38 304.343 186.982 307.215 190.138C310.087 193.286 312.194 197.221 300.316 198.795C288.438 200.368 272.72 194.665 266.203 198.697C266.203 198.697 266.398 194.957 281.344 196.336C296.289 197.716 307.597 196.434 305.108 193.189C302.618 189.944 302.236 189.059 302.236 189.059C302.236 189.059 304.983 182.09 312.967 187.388V187.38Z"
        fill="#453414" />
    <path
        d="M331.034 182.675L329.574 188.427C329.574 188.427 302.236 184.922 302.618 189.546C302.618 189.546 290.841 181.912 331.034 182.683V182.675Z"
        fill="#E69D10" />
    <path opacity="0.25" d="M188.542 276.921L217.644 301.86L216.489 293.601L188.76 274.666L188.542 276.921Z"
        fill="url(#paint8_linear_4180_22994)" />
    <path opacity="0.25" d="M189.126 306.902L206.116 319.39L209.991 302.497L188.677 283.38L189.126 306.902Z"
        fill="url(#paint9_linear_4180_22994)" />
    <path opacity="0.15"
        d="M340.337 244.462L345.067 250.287L344.122 272.451L331.518 266.788C331.518 266.788 340.025 251.909 340.337 244.462Z"
        fill="url(#paint10_linear_4180_22994)" />
    <path d="M348.672 355.866L389.068 378.452L389.786 370.339L369.651 362.226L347.08 354.828"
        fill="url(#paint11_linear_4180_22994)" />
    <path d="M396.497 373.974L396.684 380.951L402.264 382.289L399.665 375.41L396.497 373.974Z"
        fill="url(#paint12_linear_4180_22994)" />
    <path opacity="0.15" d="M154.967 370.104L180.526 358.949L180.799 364.433L154.967 370.104Z"
        fill="url(#paint13_linear_4180_22994)" />
    <path
        d="M214.593 487.774L219.096 420.357L231.693 464.466L237.413 440.939L245.436 459.168L253.451 448.589L263.753 459.168"
        fill="#203032" />
    <path
        d="M287.219 370.106L291.254 379.63L304.163 375.493L311.421 385.431L275.918 383.362L263.01 372.175L269.464 347.731"
        fill="#283C3E" />
    <defs>
        <linearGradient id="paint0_linear_4180_22994" x1="301.674" y1="325.687" x2="301.674" y2="571.61"
            gradientUnits="userSpaceOnUse">
            <stop stop-color="#E39600" />
            <stop offset="1" stop-color="#F6C76D" />
        </linearGradient>
        <linearGradient id="paint1_linear_4180_22994" x1="247.433" y1="167.391" x2="254.395" y2="167.391"
            gradientUnits="userSpaceOnUse">
            <stop offset="0.03" stop-color="#E49805" />
            <stop offset="1" stop-color="#F5C566" stop-opacity="0" />
        </linearGradient>
        <linearGradient id="paint2_linear_4180_22994" x1="232.489" y1="214.226" x2="267.593" y2="214.226"
            gradientUnits="userSpaceOnUse">
            <stop offset="0.03" stop-color="#E49804" />
            <stop offset="1" stop-color="#F5C465" stop-opacity="0" />
        </linearGradient>
        <linearGradient id="paint3_linear_4180_22994" x1="215.147" y1="213.593" x2="250.251" y2="213.593"
            gradientUnits="userSpaceOnUse">
            <stop offset="0.03" stop-color="#E49905" />
            <stop offset="1" stop-color="#F5C566" stop-opacity="0" />
        </linearGradient>
        <linearGradient id="paint4_linear_4180_22994" x1="194.793" y1="268.548" x2="228.578" y2="268.548"
            gradientUnits="userSpaceOnUse">
            <stop offset="0.03" stop-color="#E49804" />
            <stop offset="1" stop-color="#F5C567" stop-opacity="0" />
        </linearGradient>
        <linearGradient id="paint5_linear_4180_22994" x1="175.907" y1="240.3" x2="180.98" y2="240.3"
            gradientUnits="userSpaceOnUse">
            <stop offset="0.03" stop-color="#E49703" />
            <stop offset="1" stop-color="#F5C464" stop-opacity="0" />
        </linearGradient>
        <linearGradient id="paint6_linear_4180_22994" x1="167.712" y1="185.262" x2="184.241" y2="185.262"
            gradientUnits="userSpaceOnUse">
            <stop offset="0.03" stop-color="#CCCCCC" />
            <stop offset="1" stop-color="#B2B2B2" stop-opacity="0" />
        </linearGradient>
        <linearGradient id="paint7_linear_4180_22994" x1="328.201" y1="196.449" x2="332.306" y2="196.449"
            gradientUnits="userSpaceOnUse">
            <stop offset="0.03" stop-color="#E49804" />
            <stop offset="1" stop-color="#F6C86E" stop-opacity="0" />
        </linearGradient>
        <linearGradient id="paint8_linear_4180_22994" x1="188.542" y1="288.263" x2="217.644" y2="288.263"
            gradientUnits="userSpaceOnUse">
            <stop offset="0.03" stop-color="#E49804" />
            <stop offset="1" stop-color="#F5C567" stop-opacity="0" />
        </linearGradient>
        <linearGradient id="paint9_linear_4180_22994" x1="188.677" y1="301.385" x2="209.991" y2="301.385"
            gradientUnits="userSpaceOnUse">
            <stop offset="0.03" stop-color="#E49804" />
            <stop offset="1" stop-color="#F5C464" stop-opacity="0" />
        </linearGradient>
        <linearGradient id="paint10_linear_4180_22994" x1="331.518" y1="258.456" x2="345.067" y2="258.456"
            gradientUnits="userSpaceOnUse">
            <stop offset="0.03" stop-color="#E59A08" />
            <stop offset="1" stop-color="#F6C86E" stop-opacity="0" />
        </linearGradient>
        <linearGradient id="paint11_linear_4180_22994" x1="347.08" y1="366.64" x2="389.786" y2="366.64"
            gradientUnits="userSpaceOnUse">
            <stop offset="0.03" stop-color="#E49803" />
            <stop offset="1" stop-color="#F5C567" stop-opacity="0" />
        </linearGradient>
        <linearGradient id="paint12_linear_4180_22994" x1="381.068" y1="359.281" x2="402.122" y2="380.809"
            gradientUnits="userSpaceOnUse">
            <stop offset="0.03" stop-color="#CCCCCC" />
            <stop offset="1" stop-color="#B2B2B2" stop-opacity="0" />
        </linearGradient>
        <linearGradient id="paint13_linear_4180_22994" x1="166.002" y1="362.535" x2="173.04" y2="369.962"
            gradientUnits="userSpaceOnUse">
            <stop offset="0.03" stop-color="#CCCCCC" />
            <stop offset="1" stop-color="#B2B2B2" stop-opacity="0" />
        </linearGradient>
    </defs>
</svg>