<svg width="1653" height="449" viewBox="0 0 1653 449" fill="none" xmlns="http://www.w3.org/2000/svg">
<path d="M21.9667 86.9622L43.4031 62.1183L78.4771 143.083L143.712 56.7192L153.753 146.325L189.923 119.984L196.829 156.322L226.554 181.185L243.865 146.753L266.538 168.404L311.987 85.791L356.031 176.744L398.025 169.42L427.091 109.387L456.454 170.018L566.249 168.001L586.91 184.205L562.536 215.444L575.62 235.019L611.943 237.862L698.858 279.137L755.173 275.594L880.954 69.3522L945.298 212.256L1040.98 79.2278L1038.64 389.253L290.586 390.359L4.53754 309.636L21.9667 86.9622Z" fill="#122620"/>
<path d="M976 418.493L1025.03 280.65L1047.09 366.474L1123.09 122.004L1162.31 272.849L1267.72 213.029L1346.16 189.625L1429.5 236.433L1412.35 296.253L1454.03 314.455L1561.88 270.248L1596.21 96L1652.58 439.296L976 418.493Z" fill="#122620"/>
</svg>
