<svg width="2264" height="322" viewBox="0 0 2264 322" fill="none" xmlns="http://www.w3.org/2000/svg">
<path d="M0 78.2799L28.5304 79.1869L89.96 31.8582L96.5478 63.7164L153.589 11.8321L166.754 52.7913L182.119 50.06L204.062 0L228.194 22.7574L254.525 56.4295L265.492 57.3365L269.88 68.2616L294.022 63.7164L340.097 38.2278L346.675 63.7164L373.006 53.6982L377.394 66.4477L401.526 50.06L412.503 66.4477L465.165 26.3956L471.743 74.6312L509.041 66.4477L513.429 81.9182L515.628 112.859L539.76 114.683L623.142 54.6052L634.109 118.322L667.018 97.3885L781.12 152.004L886.435 37.3208L956.651 144.717L996.138 148.366L1051 39.1347V263.956L650.829 280L0 216.628V78.2799Z" fill="#134737"/>
<path d="M2264 145.438L2241.01 146.3L2191.49 101.294L2186.19 131.589L2140.22 82.2514L2129.61 121.2L2117.23 118.603L2099.55 71L2080.1 92.6304L2058.88 124.66L2050.03 125.522L2046.5 135.911L2027.05 131.589L1989.91 107.351L1984.61 131.589L1963.39 122.062L1959.85 134.176L1940.41 118.603L1931.56 134.176L1889.13 96.1L1883.83 141.968L1853.76 134.176L1850.22 148.897L1848.45 178.319L1829.01 180.054L1761.81 122.925L1752.97 183.514L1726.45 163.608L1634.5 215.543L1549.63 106.479L1493.04 208.614L1461.21 212.083L1417 108.214V322L2264 276.994V145.438Z" fill="#134737"/>
</svg>
