<svg width="578" height="753" viewBox="0 0 578 753" fill="none" xmlns="http://www.w3.org/2000/svg">
<path d="M494.53 164.055C494.53 165.771 466.546 167.175 432.042 167.175C397.538 167.175 369.555 165.781 369.555 164.055C369.555 162.328 397.528 160.934 432.042 160.934C466.556 160.934 494.53 162.328 494.53 164.055Z" fill="#FFA11B"/>
<path d="M161.259 203.425C161.259 205.141 133.276 206.546 98.7717 206.546C64.2675 206.546 36.2842 205.152 36.2842 203.425C36.2842 201.698 64.2575 200.305 98.7717 200.305C133.286 200.305 161.259 201.698 161.259 203.425Z" fill="#FFA11B"/>
<path d="M545.596 182.913C545.596 184.629 517.613 186.034 483.109 186.034C448.604 186.034 420.621 184.64 420.621 182.913C420.621 181.186 448.594 179.793 483.109 179.793C517.623 179.793 545.596 181.186 545.596 182.913Z" fill="#FFA11B"/>
<path d="M124.975 214.908C124.975 216.625 96.9917 218.029 62.4875 218.029C27.9834 218.029 0 216.635 0 214.908C0 213.182 27.9734 211.788 62.4875 211.788C97.0017 211.788 124.975 213.182 124.975 214.908Z" fill="#FFA11B"/>
<path d="M520.063 254.279C520.063 256.005 492.08 257.399 457.575 257.399C423.071 257.399 395.088 256.005 395.088 254.279C395.088 252.552 423.061 251.158 457.575 251.158C492.09 251.158 520.063 252.552 520.063 254.279Z" fill="#FFA11B"/>
<path d="M254.09 346.905L252.97 376.467L249.98 371.474L251.6 347.113L250.05 347.374L249.53 352.585L247.81 351.877L248.33 347.29C246.099 347.207 246.96 346.853 246.96 346.853L246.439 352.325L249.19 353.563L248.5 363.715L247.64 371.485L249.53 377.133L252.62 378.017L247.29 438.409L252.79 438.326L254.34 410.865L261.211 408.743L264.822 400.36L259.841 407.859L254.861 408.826L257.091 368.832L261.901 366.273L265.342 362.57L264.482 362.31L263.112 363.808L263.632 359.044L269.302 356.922L271.883 353.479L270.162 353.563L268.102 356.392L263.982 357.89L264.842 354.01L267.422 353.042L267.252 349.069L266.222 348.892L266.392 352.429L265.022 352.866L264.682 348.809C263.822 348.809 263.651 348.455 263.651 348.455L261.761 364.526L260.731 365.67L257.291 367.168V360.636L256.601 350.66L260.901 348.809L261.071 345.366L259.181 345.46L259.701 348.289L256.611 349.527L256.781 345.99L254.12 346.926L254.09 346.905Z" fill="#964915"/>
<path d="M217.566 352.231L218.766 354.083L220.997 354.519L222.197 360.521L225.807 362.466L225.977 368.291L232.338 380.295L229.758 380.035L223.227 375.094L223.747 372.972L225.117 371.381L224.597 368.021L224.427 370.85L222.877 372.171L222.537 368.551L221.507 367.313L222.197 374.293L219.967 373.149L218.416 366.263L217.046 365.732L218.416 370.32L215.496 368.728L214.466 365.462L214.296 368.728L218.246 371.381L219.447 374.033L229.418 381.096L233.888 382.24L242.139 400.422L241.279 408.629L237.669 402.71L238.699 407.297L240.929 410.127L240.409 414.454L241.779 419.135L236.799 437.587L243.85 438.294L246.26 422.671L245.06 411.989L246.26 399.985L239.209 387.451L240.929 386.744L241.619 377.029L240.589 381.262L239.729 381.002L238.529 376.769L237.669 376.945L238.869 381.803L240.589 382.157L239.899 386.307L238.529 386.744L228.908 368.114V366.7L230.968 366.44L234.748 357.609L233.378 356.901L231.488 361.312L231.658 350.536L229.598 350.452L230.798 363.163L230.278 365.639L228.048 365.816L227.187 350.806L225.297 350.889L225.637 361.041L223.577 359.803L222.717 354.332L219.627 352.918L219.797 351.773L217.566 352.21V352.231Z" fill="#964915"/>
<path d="M254.031 329.618L241.619 327.538L236.549 330.013V335.089L233.508 338.99L219.066 337.045L210.195 344.201L207.415 345.761L214.256 348.362L224.637 349.142L212.226 349.402L208.675 351.357L200.824 353.958L216.026 354.738L238.319 350.837L248.46 352.533L254.091 346.905L263.912 350.317L268.722 349.402L269.993 344.461L277.333 343.941L268.222 336.265L254.031 329.618Z" fill="#134737"/>
<path d="M278.354 345.761L272.523 345.626L269.483 350.047L268.723 354.988C273.033 354.727 274.043 354.332 274.043 354.332L280.884 349.256L278.354 345.74V345.761Z" fill="#E57428"/>
<path d="M250.48 356.173L234.268 352.533L217.296 355.913L231.478 357.734L232.998 361.124L240.859 360.864L246.429 362.55L252.51 360.334L250.48 356.173Z" fill="#134737"/>
<path d="M206.905 360.334L208.675 365.805L208.425 369.061L215.016 369.976L223.377 369.841L226.667 371.401L222.867 362.029L215.516 361.509L208.165 359.034L205.885 360.209" fill="#134737"/>
<path d="M280.013 345.189C280.433 346.25 280.924 347.259 281.534 348.206C281.754 348.549 282.044 348.809 282.434 348.923C282.794 349.027 283.274 348.975 283.594 348.767C283.914 348.549 284.194 348.237 284.284 347.831C284.374 347.436 284.354 346.978 284.134 346.625C283.624 345.844 283.184 345.023 282.834 344.159C282.884 344.284 282.934 344.409 282.984 344.534C282.964 344.471 282.934 344.419 282.914 344.357C282.864 344.149 282.774 343.972 282.644 343.827C282.534 343.66 282.394 343.525 282.224 343.421C281.904 343.223 281.424 343.14 281.064 343.265C280.704 343.39 280.354 343.619 280.163 343.983C280.113 344.107 280.063 344.232 280.013 344.357C279.943 344.638 279.943 344.908 280.013 345.189V345.189Z" fill="#E57428"/>
<path d="M210.175 340.841C210.865 340.373 211.546 339.905 212.236 339.427C212.566 339.208 212.816 338.896 212.926 338.491C212.986 338.282 212.996 338.074 212.956 337.866C212.956 337.658 212.886 337.461 212.776 337.284C212.566 336.951 212.266 336.66 211.876 336.566C211.496 336.473 211.056 336.493 210.715 336.722C210.025 337.19 209.345 337.658 208.655 338.137C208.325 338.355 208.075 338.667 207.965 339.073C207.905 339.281 207.895 339.489 207.935 339.697C207.935 339.905 208.005 340.103 208.115 340.28C208.325 340.612 208.625 340.904 209.015 340.997C209.395 341.091 209.835 341.07 210.175 340.841Z" fill="#E57428"/>
<path d="M233.218 334.028V332.093C233.218 331.698 233.048 331.272 232.778 330.991C232.638 330.835 232.478 330.731 232.298 330.668C232.118 330.575 231.928 330.523 231.718 330.533C231.328 330.554 230.928 330.679 230.658 330.991C230.388 331.293 230.218 331.667 230.218 332.093V334.028C230.218 334.423 230.388 334.85 230.658 335.131C230.798 335.287 230.958 335.391 231.138 335.453C231.318 335.547 231.508 335.599 231.718 335.588C232.108 335.568 232.508 335.443 232.778 335.131C233.048 334.829 233.218 334.455 233.218 334.028Z" fill="#E57428"/>
<path d="M260.121 330.44C261.921 331.397 263.762 332.26 265.622 333.061C265.952 333.206 266.482 333.082 266.782 332.905C267.092 332.718 267.392 332.343 267.472 331.969C267.562 331.573 267.542 331.126 267.322 330.762C267.092 330.398 266.812 330.211 266.422 330.044C266.302 329.992 266.172 329.94 266.052 329.888C265.752 329.753 266.322 330.003 266.042 329.888C265.832 329.795 265.612 329.701 265.402 329.597C264.962 329.399 264.532 329.191 264.102 328.994C263.272 328.599 262.451 328.182 261.641 327.746C260.941 327.371 259.981 327.538 259.591 328.307C259.231 329.025 259.381 330.044 260.131 330.44H260.121Z" fill="#E57428"/>
<path d="M403.269 232.862V332.447H344.612L344.182 232.571C344.182 232.571 404.759 232.092 403.269 232.851V232.862Z" fill="#B2581B"/>
<path d="M316.818 153.445V170.213H320.869V267.447H344.132V170.504H347.672L347.552 153.56C347.552 153.56 317.568 153.882 316.818 153.445V153.445Z" fill="#E57428"/>
<path d="M265.882 250.524V331.209H344.412V248.787H334.28V258.325H324.149V246.613H312.328V257.462H300.506V245.749H287.845V256.598H278.554V245.323C278.554 245.323 265.042 250.097 265.892 250.524H265.882Z" fill="#C6601C"/>
<path d="M191.333 613.833L201.155 474.18L233.909 459.878V438.003L248.64 433.79L243.73 418.656L299.407 392.569L302.687 423.701L346.902 426.218L358.364 436.318L400.939 443.048L435.333 448.093L441.884 470.81L471.357 479.225L476.268 464.08L549.957 496.044L553.237 576.813L577.12 583.033L558.148 677.761L556.548 745.996L129.916 744.893L143.838 629.81L191.333 613.833Z" fill="#753014"/>
<path d="M225.237 266.355L225.037 277.048L227.988 277.079L229.368 340.789L245.03 346.708V277.381H251.01V266.261L225.237 266.355Z" fill="#B2581B"/>
<path d="M240.059 186.866C240.059 186.866 243.74 245.073 217.486 264.233H261.242C261.242 264.233 240.059 257.607 240.059 186.866Z" fill="#B2581B"/>
<path d="M425.791 225.414C425.791 225.414 428.441 267.322 409.539 281.125H441.043C441.043 281.125 425.791 276.351 425.791 225.414Z" fill="#A5521B"/>
<path d="M332.7 0C332.7 0 339.671 110.174 289.985 146.455H372.805C372.805 146.455 332.7 133.911 332.7 0Z" fill="#E57428"/>
<path d="M242.979 316.013H252.591V326.924H257.651V315.492H269.793V326.144H277.384V314.972H285.475V326.404H292.555V314.712H299.126V325.624H308.227V314.452H318.849V325.364H324.409V314.192H334.52V418.126H245.51C245.51 418.126 243.74 315.628 242.979 316.013V316.013Z" fill="#B2581B"/>
<path d="M426.282 323.595L432.353 313.204L437.413 312.944V283.58H414.651V322.035H408.58V315.024H399.979V322.555H387.837V314.244H379.236V322.815H373.676V315.024H362.544V323.335H353.443V314.504H343.832V426.488H428.292C428.292 426.488 427.032 323.991 426.272 323.595H426.282Z" fill="#A5521B"/>
<path d="M523.673 366.596L522.213 405.155L518.313 398.643L520.423 366.866L518.403 367.209L517.733 374.002L515.492 373.076L516.163 367.085C513.252 366.97 514.372 366.513 514.372 366.513L513.702 373.648L517.293 375.26L516.393 388.502L515.272 398.633L517.743 405.997L521.773 407.152L514.822 485.913L521.993 485.799L524.013 449.986L532.975 447.219L537.685 436.276L531.184 446.064L524.683 447.333L527.594 395.169L533.865 391.83L538.345 386.993L537.225 386.65L535.435 388.606L536.105 382.385L543.506 379.619L546.866 375.125L544.626 375.24L541.936 378.922L536.555 380.877L537.675 375.812L541.036 374.543L540.815 369.363L539.475 369.134L539.695 373.742L537.905 374.314L537.455 369.019C536.335 369.019 536.115 368.562 536.115 368.562L533.645 389.521L532.304 391.019L527.824 392.974V384.455L526.924 371.443L532.524 369.03L532.744 364.536L530.274 364.651L530.944 368.333L526.914 369.945L527.134 365.337L523.663 366.565L523.673 366.596Z" fill="#964915"/>
<path d="M476.047 373.544L477.618 375.957L480.528 376.529L482.098 384.362L486.809 386.9L487.029 394.503L495.32 410.158L491.959 409.815L483.438 403.366L484.108 400.599L485.899 398.529L485.229 394.15L485.009 397.832L482.988 399.559L482.538 394.836L481.198 393.224L482.098 402.325L479.188 400.828L477.168 391.851L475.377 391.164L477.168 397.156L473.357 395.086L472.017 390.821L471.797 395.086L476.948 398.539L478.518 401.993L491.519 411.208L497.35 412.706L508.111 436.422L506.991 447.125L502.281 439.407L503.621 445.399L506.531 449.081L505.861 454.719L507.651 460.824L501.151 484.894L510.342 485.82L513.482 465.443L511.912 451.515L513.482 435.86L504.291 419.509L506.531 418.583L507.431 405.914L506.091 411.437L504.971 411.094L503.401 405.571L502.281 405.8L503.851 412.134L506.091 412.592L505.191 418.001L503.401 418.573L490.849 394.275V392.433L493.539 392.09L498.47 380.576L496.68 379.65L494.22 385.402L494.44 371.349L491.749 371.235L493.32 387.815L492.649 391.04L489.739 391.268L488.619 371.693L486.149 371.807L486.599 385.048L483.908 383.436L482.788 376.3L478.758 374.459L478.978 372.962L476.067 373.534L476.047 373.544Z" fill="#964915"/>
<path d="M523.603 344.055L507.412 341.33L500.801 344.565V351.181L496.83 356.277L477.998 353.729L466.437 363.059L462.796 365.098L471.727 368.499L485.269 369.519L469.077 369.851L464.456 372.4L454.205 375.791L474.037 376.81L503.111 371.724L516.333 373.929L523.673 366.596L536.485 371.037L542.766 369.851L544.416 363.402L553.997 362.726L542.106 352.71L523.603 344.055Z" fill="#122620"/>
<path d="M555.317 365.098L547.716 364.931L543.756 370.704L542.766 377.153C548.386 376.81 549.706 376.3 549.706 376.3L558.628 369.685L555.327 365.098H555.317Z" fill="#122620"/>
<path d="M518.973 378.682L497.83 373.929L475.688 378.339L494.19 380.721L496.17 385.132L506.421 384.788L513.682 386.993L521.613 384.112L518.973 378.682Z" fill="#122620"/>
<path d="M462.136 384.112L464.446 391.237L464.116 395.481L472.707 396.667L483.608 396.501L487.899 398.539L482.938 386.317L473.357 385.641L463.776 382.417L460.806 383.946" fill="#122620"/>
<path d="M557.927 364.235C558.457 365.576 559.088 366.856 559.868 368.052C560.088 368.395 560.378 368.655 560.768 368.77C561.128 368.874 561.608 368.822 561.928 368.614C562.248 368.395 562.528 368.083 562.618 367.678C562.708 367.282 562.688 366.825 562.468 366.471C561.808 365.452 561.228 364.38 560.768 363.257C560.818 363.382 560.868 363.506 560.918 363.631C560.888 363.558 560.858 363.475 560.828 363.402C560.778 363.194 560.688 363.018 560.558 362.872C560.448 362.706 560.308 362.57 560.138 362.466C559.818 362.269 559.338 362.185 558.977 362.31C558.617 362.435 558.267 362.664 558.077 363.028C557.897 363.371 557.777 363.85 557.927 364.235V364.235Z" fill="#122620"/>
<path d="M466.176 358.274C467.066 357.661 467.967 357.047 468.857 356.433C469.187 356.215 469.437 355.903 469.547 355.497C469.647 355.123 469.597 354.623 469.397 354.291C469.187 353.958 468.887 353.667 468.497 353.573C468.117 353.479 467.676 353.5 467.336 353.729C466.446 354.343 465.546 354.956 464.656 355.57C464.326 355.788 464.076 356.1 463.966 356.506C463.866 356.881 463.916 357.38 464.116 357.713C464.326 358.046 464.626 358.337 465.016 358.43C465.396 358.524 465.836 358.503 466.176 358.274Z" fill="#122620"/>
<path d="M496 349.797V347.269C496 346.874 495.83 346.448 495.56 346.167C495.3 345.896 494.87 345.688 494.5 345.709C494.11 345.73 493.71 345.855 493.44 346.167C493.17 346.469 493 346.843 493 347.269V349.797C493 350.192 493.17 350.619 493.44 350.9C493.71 351.181 494.13 351.378 494.5 351.357C494.89 351.337 495.29 351.212 495.56 350.9C495.83 350.598 496 350.224 496 349.797Z" fill="#122620"/>
<path d="M531.765 344.711C534.075 345.938 536.435 347.051 538.835 348.081C539.165 348.226 539.695 348.102 539.995 347.925C540.306 347.738 540.606 347.363 540.686 346.989C540.886 346.084 540.416 345.408 539.635 345.064C539.475 344.992 539.315 344.929 539.155 344.856C539.455 344.981 539.095 344.825 539.035 344.804C538.755 344.679 538.475 344.555 538.205 344.43C537.635 344.17 537.075 343.91 536.505 343.639C535.425 343.119 534.355 342.578 533.295 342.006C532.595 341.632 531.634 341.798 531.244 342.568C530.884 343.286 531.034 344.305 531.785 344.7L531.765 344.711Z" fill="#122620"/>
<path d="M289.985 146.455L316.819 153.622L347.412 153.736L372.805 146.455H289.985Z" fill="#B2581B"/>
<path opacity="0.28" d="M330.85 179.127V181.904H344.361V178.534C344.361 178.534 331.24 178.929 330.85 179.127Z" fill="#B2581B"/>
<path d="M344.572 187.635L418.17 232.862L343.892 233.018C343.892 233.018 344.562 188.155 344.562 187.635H344.572Z" fill="#B2581B"/>
<path d="M331.741 323.835L344.042 323.731L349.633 418.666H318.619C318.619 418.666 329.88 322.878 331.741 323.835V323.835Z" fill="#B2581B"/>
<path d="M333.29 363.34V427.778L434.323 455.259L432.422 364.12C432.422 364.12 332.53 362.955 333.29 363.34Z" fill="#964915"/>
<path opacity="0.65" d="M330.05 214.128H334.491C335.011 214.128 335.431 214.565 335.431 215.106V227.827H329.12V215.106C329.12 214.565 329.54 214.128 330.06 214.128H330.05Z" fill="#B2581B"/>
<path d="M231.498 267.947H234.258C234.578 267.947 234.838 268.217 234.838 268.55V275.581H230.918V268.55C230.918 268.217 231.178 267.947 231.498 267.947V267.947Z" fill="#C6601C"/>
<path d="M236.979 267.895H239.739C240.059 267.895 240.319 268.165 240.319 268.498V275.529H236.398V268.498C236.398 268.165 236.659 267.895 236.979 267.895V267.895Z" fill="#C6601C"/>
<path d="M242.449 267.895H245.21C245.53 267.895 245.79 268.165 245.79 268.498V275.529H241.869V268.498C241.869 268.165 242.129 267.895 242.449 267.895V267.895Z" fill="#C6601C"/>
<path d="M217.486 264.233L225.237 266.355L251.01 266.261L261.242 264.233H217.486Z" fill="#C6601C"/>
<path opacity="0.25" d="M241.279 280.647C240.869 280.647 240.529 280.408 240.529 280.2C240.529 279.992 240.859 279.815 241.269 279.815C241.679 279.815 242.009 279.981 242.009 280.2C242.009 280.418 241.679 280.647 241.269 280.647H241.279Z" fill="#6B462D"/>
<path opacity="0.25" d="M242.169 279.16C241.959 279.16 241.799 279.035 241.799 278.931C241.799 278.827 241.969 278.733 242.169 278.733C242.369 278.733 242.539 278.816 242.539 278.931C242.539 279.045 242.369 279.16 242.169 279.16Z" fill="#6B462D"/>
<path opacity="0.28" d="M338.361 185.753H324.149V188.946H338.361V185.753Z" fill="#B2581B"/>
<path opacity="0.28" d="M328.77 198.068H320.619V201.262H328.77V198.068Z" fill="#B2581B"/>
<path opacity="0.65" d="M323.569 157.616H326.33C326.65 157.616 326.91 157.887 326.91 158.219V168.746H322.989V158.219C322.989 157.887 323.249 157.616 323.569 157.616V157.616Z" fill="#B2581B"/>
<path opacity="0.65" d="M330.83 157.647H333.59C333.91 157.647 334.17 157.918 334.17 158.251V168.777H330.25V158.251C330.25 157.918 330.51 157.647 330.83 157.647V157.647Z" fill="#B2581B"/>
<path opacity="0.65" d="M338.481 157.751H341.241C341.561 157.751 341.821 158.022 341.821 158.355V168.881H337.9V158.355C337.9 158.022 338.161 157.751 338.481 157.751V157.751Z" fill="#B2581B"/>
<path d="M238.449 287.512H227.817V290.789H238.449V287.512Z" fill="#C6601C"/>
<path d="M277.064 272.118H266.433V275.394H277.064V272.118Z" fill="#B2581B"/>
<path d="M317.189 279.576H300.047V282.852H317.189V279.576Z" fill="#B2581B"/>
<path d="M275.814 349.495H258.672V352.772H275.814V349.495Z" fill="#964915"/>
<path d="M291.175 342.485H274.033V345.761H291.175V342.485Z" fill="#964915"/>
<path d="M262.102 388.46H244.96V391.737H262.102V388.46Z" fill="#964915"/>
<path d="M295.746 298.288H278.604V301.565H295.746V298.288Z" fill="#B2581B"/>
<path d="M350.613 290.851H333.471V294.127H350.613V290.851Z" fill="#B2581B"/>
<path d="M326.25 283.507H309.107V286.784H326.25V283.507Z" fill="#E57428"/>
<path d="M287.825 354.561H270.683V357.838H287.825V354.561Z" fill="#C6601C"/>
<path d="M245.039 296.915H239.059V300.192H245.039V296.915Z" fill="#C6601C"/>
<path d="M409.539 281.125L414.65 283.591H437.412L441.043 281.125H409.539Z" fill="#964915"/>
<path d="M442.364 271.608C442.364 271.608 446.044 329.816 419.791 348.975H463.546C463.546 348.975 442.364 342.35 442.364 271.608Z" fill="#964915"/>
<path d="M426.622 353.25V486.277L452.925 493.288L446.854 371.953L457.476 366.492L456.466 353.76H444.834V351.42C444.834 351.42 428.142 353.24 426.622 353.24V353.25Z" fill="#964915"/>
<path d="M419.801 348.986L426.622 353.25L456.455 353.771L463.556 348.986H419.801Z" fill="#874315"/>
<path d="M220.787 195.613C220.787 195.613 210.465 195.145 213.906 198.911C217.346 202.687 219.876 207.399 205.645 209.281C191.413 211.164 172.601 204.33 164.8 209.167C164.8 209.167 165.03 204.684 182.932 206.338C200.834 207.991 214.366 206.452 211.385 202.562C208.405 198.672 207.945 197.611 207.945 197.611C207.945 197.611 211.235 189.258 220.797 195.603L220.787 195.613Z" fill="#D86D25"/>
<path d="M242.419 189.986L240.669 196.872C240.669 196.872 207.935 192.67 208.395 198.214C208.395 198.214 194.293 189.071 242.419 189.986Z" fill="#F2853B"/>
<path d="M297.176 10.6201C297.176 10.6201 279.774 9.82959 285.574 16.185C291.375 22.5404 295.625 30.4873 271.653 33.6702C247.68 36.8531 215.976 25.328 202.824 33.4725C202.824 33.4725 203.214 25.921 233.368 28.7086C263.532 31.4858 286.344 28.9062 281.314 22.3532C276.283 15.8001 275.513 14.0111 275.513 14.0111C275.513 14.0111 281.054 -0.0623732 297.166 10.6305L297.176 10.6201Z" fill="#D86D25"/>
<path d="M333.63 1.13378L330.68 12.742C330.68 12.742 275.523 5.6585 276.293 14.9992C276.293 14.9992 252.52 -0.405663 333.62 1.13378H333.63Z" fill="#F2853B"/>
<path d="M403.279 233.049L343.901 233.007L344.911 236.565H403.089L403.279 233.049Z" fill="#964915"/>
<path d="M357.493 240.299H365.864C366.844 240.299 367.634 241.121 367.634 242.14V261.279H355.723V242.14C355.723 241.121 356.513 240.299 357.493 240.299V240.299Z" fill="#964915"/>
<path d="M382.167 239.862H390.538C391.518 239.862 392.308 240.684 392.308 241.703V260.842H380.396V241.703C380.396 240.684 381.186 239.862 382.167 239.862V239.862Z" fill="#964915"/>
<path d="M248.64 433.79L339.971 455.842L344.912 479.683L427.832 498.447L453.495 520.759L291.606 615.59L388.347 654.649L221.167 728.927L473.718 732.536L557.148 675.941L364.654 607.477L361.694 591.251L549.957 496.044L476.268 464.08L332.44 417.231H243.76L248.64 433.79Z" fill="#964915"/>
<path d="M269.312 417.616L279.984 408.015L296.676 404.926L301.346 399.101L319.369 399.787L333.38 409.045L331.38 419.322L269.312 417.616Z" fill="#964915"/>
<path d="M332.44 417.231L440.103 420.039L415.78 449.07L332.44 417.231Z" fill="#964915"/>
<path d="M417.171 445.243L371.686 433.749L371.876 424.21C371.876 417.782 382.017 412.571 394.518 412.571C407.03 412.571 417.161 417.782 417.161 424.21V445.253L417.171 445.243Z" fill="#8C4515"/>
<path d="M449.385 455.925L334.521 418.126L415.03 455.135L449.385 455.925Z" fill="#8C4515"/>
<path d="M360.354 374.595H368.875C369.865 374.595 370.675 375.437 370.675 376.467V399.018H358.554V376.467C358.554 375.437 359.364 374.595 360.354 374.595Z" fill="#8C4515"/>
<path d="M390.427 374.355H398.948C399.938 374.355 400.748 375.198 400.748 376.228V398.778H388.627V376.228C388.627 375.198 389.437 374.355 390.427 374.355Z" fill="#8C4515"/>
<path d="M420.011 375.593H428.532C429.522 375.593 430.332 376.436 430.332 377.465V400.016H418.211V377.465C418.211 376.436 419.021 375.593 420.011 375.593Z" fill="#8C4515"/>
<path d="M289.985 146.455C289.985 146.455 313.498 128.793 321.099 96.0905C321.099 96.0905 313.038 140.682 289.985 146.455V146.455Z" fill="#FADC69"/>
<path opacity="0.25" d="M320.869 170.213L328.57 209.406L326.579 258.003L324.139 258.335V246.623L319.648 246.55L320.869 170.213Z" fill="url(#paint0_linear_3423_12415)"/>
<path opacity="0.25" d="M300.496 257.462L345.482 291.184L344.791 280.22L312.317 257.462H300.496Z" fill="url(#paint1_linear_3423_12415)"/>
<path opacity="0.25" d="M278.273 256.65L323.259 290.362L322.569 279.399L290.095 256.65H278.273Z" fill="url(#paint2_linear_3423_12415)"/>
<path opacity="0.25" d="M252.19 327.038L295.486 360.896L294.796 349.932L257.781 327.038H252.19Z" fill="url(#paint3_linear_3423_12415)"/>
<path opacity="0.25" d="M227.987 277.079L234.488 291.069L233.718 337.034L228.677 338.428L227.987 277.079Z" fill="url(#paint4_linear_3423_12415)"/>
<path opacity="0.15" d="M217.487 264.233C223.037 261.196 228.778 258.263 235.129 255.693L238.629 210.134C238.629 210.134 240.439 245.853 217.477 264.233H217.487Z" fill="url(#paint5_linear_3423_12415)"/>
<path opacity="0.15" d="M423.151 255.329L428.412 258.211L427.102 246.041L425.122 244.855L423.151 255.329Z" fill="url(#paint6_linear_3423_12415)"/>
<path d="M403.628 239.904C403.628 239.904 392.577 239.394 396.258 243.44C399.938 247.476 402.638 252.521 387.416 254.539C372.195 256.557 352.052 249.244 343.701 254.414C343.701 254.414 343.951 249.619 363.104 251.387C382.256 253.155 396.748 251.512 393.557 247.351C390.367 243.191 389.877 242.057 389.877 242.057C389.877 242.057 393.397 233.122 403.628 239.914V239.904Z" fill="#D86D25"/>
<path d="M426.781 233.871L424.911 241.245C424.911 241.245 389.877 236.752 390.367 242.681C390.367 242.681 375.275 232.893 426.781 233.881V233.871Z" fill="#F2853B"/>
<path opacity="0.25" d="M244.18 354.707L281.474 386.681L279.994 376.092L244.46 351.815L244.18 354.707Z" fill="url(#paint7_linear_3423_12415)"/>
<path opacity="0.25" d="M245.14 397.749L270.883 416.68L276.754 391.071L244.46 362.092L245.14 397.749Z" fill="url(#paint8_linear_3423_12415)"/>
<path opacity="0.15" d="M438.704 313.09L444.764 320.558L443.554 348.975L427.402 341.715C427.402 341.715 438.304 322.638 438.704 313.09V313.09Z" fill="url(#paint9_linear_3423_12415)"/>
<path d="M449.384 455.925L501.15 484.883L502.07 474.482L476.267 464.08L447.344 454.594" fill="url(#paint10_linear_3423_12415)"/>
<path d="M510.672 479.142L510.912 488.087L518.063 489.803L514.732 480.983L510.672 479.142Z" fill="url(#paint11_linear_3423_12415)"/>
<path opacity="0.15" d="M201.154 474.18L233.908 459.878L234.258 466.909L201.154 474.18Z" fill="url(#paint12_linear_3423_12415)"/>
<path d="M176.633 630.797L214.321 600.872L279.768 740.54L313.497 689.549L355.145 721.703L424.571 711.724L418.612 752.736L69.5283 743.866L176.633 630.797Z" fill="#122620"/>
<path d="M291.455 615.185L297.226 528.747L313.368 585.301L320.699 555.136L330.98 578.509L341.251 564.945L354.453 578.509" fill="#122620"/>
<path d="M374.185 474.95L379.356 487.161L395.898 481.856L405.199 494.598L359.703 491.946L343.161 477.602L351.432 446.262" fill="#753014"/>
<defs>
<linearGradient id="paint0_linear_3423_12415" x1="319.648" y1="214.274" x2="328.57" y2="214.274" gradientUnits="userSpaceOnUse">
<stop offset="0.03" stop-color="#FADC69"/>
<stop offset="1" stop-color="#FADC69" stop-opacity="0"/>
</linearGradient>
<linearGradient id="paint1_linear_3423_12415" x1="300.496" y1="274.323" x2="345.482" y2="274.323" gradientUnits="userSpaceOnUse">
<stop offset="0.03" stop-color="#FADC69"/>
<stop offset="1" stop-color="#FADC69" stop-opacity="0"/>
</linearGradient>
<linearGradient id="paint2_linear_3423_12415" x1="278.273" y1="273.511" x2="323.259" y2="273.511" gradientUnits="userSpaceOnUse">
<stop offset="0.03" stop-color="#FADC69"/>
<stop offset="1" stop-color="#FADC69" stop-opacity="0"/>
</linearGradient>
<linearGradient id="paint3_linear_3423_12415" x1="252.19" y1="343.972" x2="295.486" y2="343.972" gradientUnits="userSpaceOnUse">
<stop offset="0.03" stop-color="#FADC69"/>
<stop offset="1" stop-color="#FADC69" stop-opacity="0"/>
</linearGradient>
<linearGradient id="paint4_linear_3423_12415" x1="227.987" y1="307.754" x2="234.488" y2="307.754" gradientUnits="userSpaceOnUse">
<stop offset="0.03" stop-color="#FADC69"/>
<stop offset="1" stop-color="#FADC69" stop-opacity="0"/>
</linearGradient>
<linearGradient id="paint5_linear_3423_12415" x1="217.487" y1="237.189" x2="238.669" y2="237.189" gradientUnits="userSpaceOnUse">
<stop offset="0.03" stop-color="#FADC69"/>
<stop offset="1" stop-color="#FADC69" stop-opacity="0"/>
</linearGradient>
<linearGradient id="paint6_linear_3423_12415" x1="423.151" y1="251.533" x2="428.412" y2="251.533" gradientUnits="userSpaceOnUse">
<stop offset="0.03" stop-color="#FADC69"/>
<stop offset="1" stop-color="#FADC69" stop-opacity="0"/>
</linearGradient>
<linearGradient id="paint7_linear_3423_12415" x1="244.18" y1="369.248" x2="281.474" y2="369.248" gradientUnits="userSpaceOnUse">
<stop offset="0.03" stop-color="#FADC69"/>
<stop offset="1" stop-color="#FADC69" stop-opacity="0"/>
</linearGradient>
<linearGradient id="paint8_linear_3423_12415" x1="244.46" y1="389.386" x2="276.754" y2="389.386" gradientUnits="userSpaceOnUse">
<stop offset="0.03" stop-color="#FADC69"/>
<stop offset="1" stop-color="#FADC69" stop-opacity="0"/>
</linearGradient>
<linearGradient id="paint9_linear_3423_12415" x1="427.402" y1="331.033" x2="444.764" y2="331.033" gradientUnits="userSpaceOnUse">
<stop offset="0.03" stop-color="#FADC69"/>
<stop offset="1" stop-color="#FADC69" stop-opacity="0"/>
</linearGradient>
<linearGradient id="paint10_linear_3423_12415" x1="447.344" y1="469.739" x2="502.07" y2="469.739" gradientUnits="userSpaceOnUse">
<stop offset="0.03" stop-color="#FADC69"/>
<stop offset="1" stop-color="#FADC69" stop-opacity="0"/>
</linearGradient>
<linearGradient id="paint11_linear_3423_12415" x1="490.899" y1="460.304" x2="517.894" y2="487.892" gradientUnits="userSpaceOnUse">
<stop offset="0.03" stop-color="#FADC69"/>
<stop offset="1" stop-color="#FADC69" stop-opacity="0"/>
</linearGradient>
<linearGradient id="paint12_linear_3423_12415" x1="215.296" y1="464.475" x2="224.319" y2="473.994" gradientUnits="userSpaceOnUse">
<stop offset="0.03" stop-color="#FADC69"/>
<stop offset="1" stop-color="#FADC69" stop-opacity="0"/>
</linearGradient>
</defs>
</svg>
